<svg version="1.1" id="Layer_1" xmlns="http://www.w3.org/2000/svg" xmlns:xlink="http://www.w3.org/1999/xlink" x="0px" y="0px"
	 width="100%" viewBox="0 0 192 192" enable-background="new 0 0 192 192" xml:space="preserve">
<path fill="#0101FF" opacity="1.000000" stroke="none" 
	d="
M193.000000,9.999998 
	C193.000000,19.354229 193.000000,28.708458 192.681580,38.663708 
	C182.593307,44.376186 175.630783,52.320038 170.164444,61.652172 
	C159.869766,79.227287 155.079971,98.448120 153.405014,118.589989 
	C153.248642,120.470566 152.862396,122.829941 151.654068,124.037956 
	C146.722488,128.968201 141.623596,133.776230 136.210159,138.165298 
	C131.706497,141.816772 129.270706,140.756454 128.948273,134.904922 
	C128.220078,121.689835 126.655594,108.384178 134.534790,96.212494 
	C137.995544,90.866394 135.248169,85.077415 128.410721,80.587181 
	C122.489792,76.698837 119.331543,77.044212 114.977867,81.815048 
	C111.036942,81.207153 107.310982,80.226067 103.560387,80.120552 
	C81.054176,79.487373 60.881519,96.889427 56.171600,120.711990 
	C55.828739,122.446152 55.423908,124.373161 54.411469,125.738640 
	C42.059410,142.397919 16.901119,146.237381 1.000000,134.000000 
	C1.000000,117.312439 1.000000,100.624878 1.045480,83.098343 
	C3.202323,78.192764 5.313687,74.126160 7.439455,70.031822 
	C11.701928,71.233765 15.618678,72.615524 19.650558,73.420998 
	C30.026989,75.493927 40.409962,76.397224 50.406647,71.634995 
	C58.761909,67.654701 63.044209,59.897739 61.912148,50.949608 
	C60.856747,42.607426 54.986237,36.574402 45.671967,35.218060 
	C40.471718,34.460796 35.098541,34.387318 29.837036,34.659073 
	C18.785442,35.229885 9.765492,40.897442 1.000000,47.000000 
	C1.000000,34.979103 1.000000,22.958210 1.263919,10.784992 
	C4.351892,7.421779 7.175946,4.210890 10.000000,1.000000 
	C67.687561,1.000000 125.375122,1.000000 183.214996,1.263914 
	C186.578217,4.351884 189.789108,7.175941 193.000000,9.999998 
z"/>
<path fill="#FBFBFF" opacity="1.000000" stroke="none" 
	d="
M1.000000,134.468643 
	C16.901119,146.237381 42.059410,142.397919 54.411469,125.738640 
	C55.423908,124.373161 55.828739,122.446152 56.171600,120.711990 
	C60.881519,96.889427 81.054176,79.487373 103.560387,80.120552 
	C107.310982,80.226067 111.036942,81.207153 114.977867,81.815048 
	C119.331543,77.044212 122.489792,76.698837 128.410721,80.587181 
	C135.248169,85.077415 137.995544,90.866394 134.534790,96.212494 
	C126.655594,108.384178 128.220078,121.689835 128.948273,134.904922 
	C129.270706,140.756454 131.706497,141.816772 136.210159,138.165298 
	C141.623596,133.776230 146.722488,128.968201 151.654068,124.037956 
	C152.862396,122.829941 153.248642,120.470566 153.405014,118.589989 
	C155.079971,98.448120 159.869766,79.227287 170.164444,61.652172 
	C175.630783,52.320038 182.593307,44.376186 192.681580,39.132362 
	C193.000000,45.354397 193.000000,51.708797 192.696167,58.682598 
	C185.203461,69.007614 182.200272,80.374107 179.960159,92.294022 
	C184.306778,87.196014 188.653381,82.098007 193.000000,77.000000 
	C193.000000,83.354401 193.000000,89.708794 192.699371,96.678299 
	C189.006851,101.165405 185.913437,105.361008 182.150970,108.831223 
	C176.908142,113.666847 176.270660,119.442863 176.834015,125.999817 
	C177.543640,134.259232 183.496506,141.792740 193.000000,140.000000 
	C193.000000,146.021149 193.000000,152.042297 192.533890,158.552383 
	C176.069016,160.202011 162.731750,156.063065 155.273300,139.886398 
	C153.844406,141.505875 152.783524,142.739105 151.689911,143.942596 
	C145.516098,150.736832 138.239716,155.893997 129.298965,158.290344 
	C119.020409,161.045242 114.482300,158.443314 111.166458,148.315323 
	C110.833427,147.298096 110.433434,146.302780 109.866188,144.756775 
	C103.037292,154.607803 94.305313,159.728714 82.713982,160.141022 
	C70.961021,160.559052 62.058613,156.279572 56.362766,145.326263 
	C47.533665,154.073853 37.050549,158.663513 25.334028,159.562897 
	C17.284523,160.180817 9.115565,159.242645 1.000000,159.000000 
	C1.000000,150.979095 1.000000,142.958191 1.000000,134.468643 
M105.175720,131.552887 
	C106.404549,128.665222 108.398804,125.860786 108.723412,122.874825 
	C109.844734,112.560287 110.384079,102.182487 111.161125,91.609528 
	C102.888161,93.108299 95.834015,97.242462 89.861542,103.223747 
	C80.893692,112.204842 77.387527,123.057419 79.899254,135.545990 
	C80.982025,140.929642 84.780090,143.117416 90.226303,142.391846 
	C96.862122,141.507797 101.329262,137.559967 105.175720,131.552887 
z"/>
<path fill="#0101FF" opacity="1.000000" stroke="none" 
	d="
M1.000000,159.468643 
	C9.115565,159.242645 17.284523,160.180817 25.334028,159.562897 
	C37.050549,158.663513 47.533665,154.073853 56.362766,145.326263 
	C62.058613,156.279572 70.961021,160.559052 82.713982,160.141022 
	C94.305313,159.728714 103.037292,154.607803 109.866188,144.756775 
	C110.433434,146.302780 110.833427,147.298096 111.166458,148.315323 
	C114.482300,158.443314 119.020409,161.045242 129.298965,158.290344 
	C138.239716,155.893997 145.516098,150.736832 151.689911,143.942596 
	C152.783524,142.739105 153.844406,141.505875 155.273300,139.886398 
	C162.731750,156.063065 176.069016,160.202011 192.533890,159.020660 
	C193.000000,167.020905 193.000000,175.041809 192.736084,183.215027 
	C189.648117,186.578232 186.824066,189.789124 184.000000,193.000000 
	C126.312439,193.000000 68.624878,193.000000 10.784991,192.736084 
	C7.421778,189.648117 4.210888,186.824051 0.999999,184.000000 
	C1.000000,175.979095 1.000000,167.958191 1.000000,159.468643 
z"/>
<path fill="#F9F9FF" opacity="1.000000" stroke="none" 
	d="
M1.000000,47.468658 
	C9.765492,40.897442 18.785442,35.229885 29.837036,34.659073 
	C35.098541,34.387318 40.471718,34.460796 45.671967,35.218060 
	C54.986237,36.574402 60.856747,42.607426 61.912148,50.949608 
	C63.044209,59.897739 58.761909,67.654701 50.406647,71.634995 
	C40.409962,76.397224 30.026989,75.493927 19.650558,73.420998 
	C15.618678,72.615524 11.701928,71.233765 7.439455,70.031822 
	C5.313687,74.126160 3.202323,78.192764 1.045480,82.629684 
	C1.000000,71.312439 1.000000,59.624878 1.000000,47.468658 
M27.745966,62.068409 
	C31.548395,61.992523 35.476795,62.458309 39.100872,61.615505 
	C40.952671,61.184853 43.417789,58.456123 43.490349,56.679684 
	C43.564888,54.854805 41.460308,52.003857 39.615433,51.205509 
	C32.878906,48.290344 20.336884,53.228298 16.508976,60.039349 
	C20.025057,60.713394 23.424801,61.365135 27.745966,62.068409 
z"/>
<path fill="#0404FF" opacity="1.000000" stroke="none" 
	d="
M193.000000,139.531342 
	C183.496506,141.792740 177.543640,134.259232 176.834015,125.999817 
	C176.270660,119.442863 176.908142,113.666847 182.150970,108.831223 
	C185.913437,105.361008 189.006851,101.165405 192.699371,97.146706 
	C193.000000,111.020897 193.000000,125.041786 193.000000,139.531342 
z"/>
<path fill="#0C0CFF" opacity="1.000000" stroke="none" 
	d="
M193.000000,76.532059 
	C188.653381,82.098007 184.306778,87.196014 179.960159,92.294022 
	C182.200272,80.374107 185.203461,69.007614 192.696167,59.151001 
	C193.000000,64.688042 193.000000,70.376083 193.000000,76.532059 
z"/>
<path fill="#000000" opacity="1.000000" stroke="none" 
	d="
M9.508951,1.000000 
	C7.175946,4.210890 4.351892,7.421779 1.263919,10.316335 
	C1.000000,7.082645 1.000000,4.165290 1.000000,1.000000 
	C3.670005,1.000000 6.343954,1.000000 9.508951,1.000000 
z"/>
<path fill="#000000" opacity="1.000000" stroke="none" 
	d="
M193.000000,9.508950 
	C189.789108,7.175941 186.578217,4.351884 183.683655,1.263914 
	C186.917358,1.000000 189.834702,1.000000 193.000000,1.000000 
	C193.000000,3.670005 193.000000,6.343954 193.000000,9.508950 
z"/>
<path fill="#000000" opacity="1.000000" stroke="none" 
	d="
M0.999999,184.491058 
	C4.210888,186.824051 7.421778,189.648117 10.316334,192.736084 
	C7.082646,193.000000 4.165292,193.000000 1.000000,193.000000 
	C1.000000,190.330002 1.000000,187.656052 0.999999,184.491058 
z"/>
<path fill="#000000" opacity="1.000000" stroke="none" 
	d="
M184.491058,193.000000 
	C186.824066,189.789124 189.648117,186.578232 192.736084,183.683670 
	C193.000000,186.917358 193.000000,189.834702 193.000000,193.000000 
	C190.330002,193.000000 187.656052,193.000000 184.491058,193.000000 
z"/>
<path fill="#0505FF" opacity="1.000000" stroke="none" 
	d="
M105.000145,131.876266 
	C101.329262,137.559967 96.862122,141.507797 90.226303,142.391846 
	C84.780090,143.117416 80.982025,140.929642 79.899254,135.545990 
	C77.387527,123.057419 80.893692,112.204842 89.861542,103.223747 
	C95.834015,97.242462 102.888161,93.108299 111.161125,91.609528 
	C110.384079,102.182487 109.844734,112.560287 108.723412,122.874825 
	C108.398804,125.860786 106.404549,128.665222 105.000145,131.876266 
z"/>
<path fill="#0909FF" opacity="1.000000" stroke="none" 
	d="
M27.285255,62.042641 
	C23.424801,61.365135 20.025057,60.713394 16.508976,60.039349 
	C20.336884,53.228298 32.878906,48.290344 39.615433,51.205509 
	C41.460308,52.003857 43.564888,54.854805 43.490349,56.679684 
	C43.417789,58.456123 40.952671,61.184853 39.100872,61.615505 
	C35.476795,62.458309 31.548395,61.992523 27.285255,62.042641 
z"/>
</svg>